# xmcd
#
# Track frame offsets: 
#        150
#        14363
#        28789
#        45075
#        58723
#        71909
#        84662
#        98250
#        111752
#        124655
#        133366
#        145999
#        160953
#        173521
#        187719
#        199546
#        213155
#        225302
#        237876
#        253183
#        267244
#        281740
#        292091
#        304999
#        316910
#        331421
#
# Disc length: 4577 seconds
#
# Revision: 5
# Processed by: cddbd v1.5.2PL0 Copyright (c) Steve Scherf et al.
# Submitted via: ExactAudioCopyFreeDBPlugin 1.0
#
DISCID=7111df1a
DTITLE=John Lee Hooker - Hooker [box set]
DYEAR=2006
DGENRE=Blues
TTITLE0=Boogie Chillen'
TTITLE1=Sally Mae
TTITLE2=Black Man Blues (as "Texas Slim")
TTITLE3=Hobo Blues
TTITLE4=Hoogie Boogie
TTITLE5=Weeping Willow Boogie
TTITLE6=Crawlin' King Snake
TTITLE7=Driftin' from Door to Door
TTITLE8=Catfish Blues
TTITLE9=Moses Smote the Water
TTITLE10=Huckle Up Baby
TTITLE11=Wandering Blues (as "Texas Slim")
TTITLE12=Don't You Remember Me (as "Texas Slim")
TTITLE13=Notoriety Woman
TTITLE14=Let Your Daddy Ride
TTITLE15=John L's House Rent Boogie
TTITLE16=Bumble Bee Blues (as "Johnny Williams")
TTITLE17=Leave My Wife Alone (as John Lee Booker)
TTITLE18=Just Me and My Telephone
TTITLE19=I'm in the Mood
TTITLE20=Blues for Big Town
TTITLE21=Stuttering Blues (as "John Lee Booker")
TTITLE22=Down Child
TTITLE23=Boogie Rambler
TTITLE24=Baby You Ain't No Good
TTITLE25=I'm Ready
EXTD=
EXTT0=
EXTT1=
EXTT2=
EXTT3=
EXTT4=
EXTT5=
EXTT6=
EXTT7=
EXTT8=
EXTT9=
EXTT10=
EXTT11=
EXTT12=
EXTT13=
EXTT14=
EXTT15=
EXTT16=
EXTT17=
EXTT18=
EXTT19=
EXTT20=
EXTT21=
EXTT22=
EXTT23=
EXTT24=
EXTT25=
PLAYORDER=
